<svg xmlns="http://www.w3.org/2000/svg" xmlns:xlink="http://www.w3.org/1999/xlink" width="1024" zoomAndPan="magnify" viewBox="0 0 768 576" height="768" preserveAspectRatio="xMidYMid meet" version="1.0"><defs><filter x="0%" y="0%" width="100%" height="100%" id="id1"><feColorMatrix values="0 0 0 0 1 0 0 0 0 1 0 0 0 0 1 0 0 0 1 0" color-interpolation-filters="sRGB"/></filter><mask id="id2"><g filter="url(#id1)"><rect x="-76.8" width="921.6" fill="rgb(0%, 0%, 0%)" y="-57.6" height="691.2" fill-opacity="0.5373"/></g></mask><clipPath id="id3"><path d="M 0.679688 0.519531 L 647 0.519531 L 647 445 L 0.679688 445 Z M 0.679688 0.519531 " clip-rule="nonzero"/></clipPath><clipPath id="id4"><rect x="0" width="647" y="0" height="445"/></clipPath></defs><rect x="-76.8" width="921.6" fill="rgb(100%, 100%, 100%)" y="-57.6" height="691.2" fill-opacity="1"/><rect x="-76.8" width="921.6" fill="rgb(100%, 96.469116%, 91.758728%)" y="-57.6" height="691.2" fill-opacity="1"/><rect x="-76.8" width="921.6" fill="rgb(100%, 100%, 100%)" y="-57.6" height="691.2" fill-opacity="1"/><rect x="-76.8" width="921.6" fill="rgb(100%, 96.469116%, 91.758728%)" y="-57.6" height="691.2" fill-opacity="1"/><g mask="url(#id2)"><g transform="matrix(1, 0, 0, 1, 121, 131)"><g clip-path="url(#id4)"><g clip-path="url(#id3)"><path fill="rgb(79.219055%, 1.959229%, 30.198669%)" d="M 742.078125 16.675781 C 683.539062 5.972656 624.164062 -2.894531 564.457031 2.125 C 506.757812 6.972656 453.570312 34.90625 395.535156 36.914062 C 336.664062 38.921875 277.625 28.550781 220.59375 15.335938 C 124.757812 -6.742188 48.828125 20.355469 0.828125 48.289062 L 0.828125 631.367188 L 837.074219 631.367188 L 837.074219 36.414062 C 805.796875 28.21875 773.519531 22.363281 742.078125 16.675781 " fill-opacity="1" fill-rule="nonzero"/></g></g></g></g><path fill="rgb(79.219055%, 1.959229%, 30.198669%)" d="M 707.207031 154.589844 C 648.667969 143.882812 589.296875 135.019531 529.589844 140.035156 C 471.886719 144.886719 418.703125 172.820312 360.667969 174.828125 C 301.792969 176.835938 242.753906 166.464844 185.722656 153.25 C 89.890625 131.171875 13.957031 158.269531 -34.042969 186.203125 L -34.042969 769.28125 L 802.203125 769.28125 L 802.203125 174.324219 C 770.929688 166.128906 738.648438 160.277344 707.207031 154.589844 " fill-opacity="1" fill-rule="nonzero"/><path fill="rgb(79.219055%, 1.959229%, 30.198669%)" d="M 722.207031 169.589844 C 663.667969 158.882812 604.296875 150.019531 544.589844 155.035156 C 486.886719 159.886719 433.703125 187.820312 375.667969 189.828125 C 316.792969 191.835938 257.753906 181.464844 200.722656 168.25 C 104.890625 146.171875 28.957031 173.269531 -19.042969 201.203125 L -19.042969 784.28125 L 817.203125 784.28125 L 817.203125 189.324219 C 785.929688 181.128906 753.648438 175.277344 722.207031 169.589844 " fill-opacity="1" fill-rule="nonzero"/></svg>