<svg id="Gradient" height="512" viewBox="0 0 512 512" width="512" xmlns="http://www.w3.org/2000/svg" xmlns:xlink="http://www.w3.org/1999/xlink"><linearGradient id="linear-gradient" gradientUnits="userSpaceOnUse" x1="256" x2="256" y1="496" y2="16"><stop offset="0" stop-color="#12c2e9"/><stop offset=".5" stop-color="#c471ed"/><stop offset="1" stop-color="#f64f59"/></linearGradient><path d="m48 496a32.036 32.036 0 0 1 -32-32 351.731 351.731 0 0 1 352-351.995l-51.2-38.4a32 32 0 1 1 38.4-51.2l128 96a32 32 0 0 1 0 51.2l-128 96a31.736 31.736 0 0 1 -19.18 6.395 32 32 0 0 1 -19.22-57.6l51.2-38.4a288 288 0 0 0 -288 288 32.036 32.036 0 0 1 -32 32zm320-368a335.73 335.73 0 0 0 -336 336 16 16 0 0 0 32 0 304 304 0 0 1 304-304h24a8 8 0 0 1 4.8 14.4l-70.4 52.8a16 16 0 1 0 19.2 25.6l128-96a16 16 0 0 0 0-25.6l-128-96a16 16 0 1 0 -19.2 25.6l70.4 52.8a8 8 0 0 1 -4.8 14.4z" fill="url(#linear-gradient)"/></svg>